<?xml version="1.0" encoding="UTF-8"?>
<!DOCTYPE svg PUBLIC "-//W3C//DTD SVG 1.1//EN" "http://www.w3.org/Graphics/SVG/1.1/DTD/svg11.dtd">
<svg xmlns="http://www.w3.org/2000/svg" version="1.1" width="781px" height="435px" style="shape-rendering:geometricPrecision; text-rendering:geometricPrecision; image-rendering:optimizeQuality; fill-rule:evenodd; clip-rule:evenodd" xmlns:xlink="http://www.w3.org/1999/xlink">
<g><path style="opacity:0.793" fill="#000000" d="M 355.5,113.5 C 375.569,111.401 390.069,119.401 399,137.5C 408.974,160.842 408.974,184.175 399,207.5C 389.934,226.613 375.101,234.447 354.5,231C 341.541,225.373 332.708,215.873 328,202.5C 317.611,173.843 321.611,147.51 340,123.5C 344.824,119.484 349.991,116.151 355.5,113.5 Z M 360.5,117.5 C 373.676,117.17 383.842,122.504 391,133.5C 404.225,158.122 404.891,183.122 393,208.5C 382.726,226.401 368.226,231.234 349.5,223C 339.992,216.172 333.826,207.005 331,195.5C 323.518,169.872 328.018,146.705 344.5,126C 349.261,121.926 354.594,119.093 360.5,117.5 Z M 361.5,125.5 C 371.202,125.433 378.702,129.433 384,137.5C 393.243,153.395 395.909,170.395 392,188.5C 389.423,201.05 382.923,210.883 372.5,218C 360.846,221.092 351.679,217.592 345,207.5C 332.72,185.044 332.386,162.377 344,139.5C 348.27,132.714 354.104,128.048 361.5,125.5 Z"/></g>
<g><path style="opacity:0.792" fill="#000000" d="M 360.5,120.5 C 371.597,120.131 380.43,124.465 387,133.5C 398.732,152.076 401.732,172.076 396,193.5C 393.095,204.921 386.928,214.088 377.5,221C 369.684,225.255 361.684,225.588 353.5,222C 337.639,209.437 329.972,192.937 330.5,172.5C 330.3,154.252 336.634,138.752 349.5,126C 352.99,123.588 356.657,121.755 360.5,120.5 Z M 361.5,125.5 C 354.104,128.048 348.27,132.714 344,139.5C 332.386,162.377 332.72,185.044 345,207.5C 351.679,217.592 360.846,221.092 372.5,218C 382.923,210.883 389.423,201.05 392,188.5C 395.909,170.395 393.243,153.395 384,137.5C 378.702,129.433 371.202,125.433 361.5,125.5 Z"/></g>
<g><path style="opacity:0.777" fill="#000000" d="M 377.5,179.5 C 380.68,179.176 381.847,180.51 381,183.5C 376.699,191.147 372.366,198.813 368,206.5C 364.621,209.49 362.955,208.824 363,204.5C 368.061,196.279 372.894,187.946 377.5,179.5 Z"/></g>
<g><path style="opacity:0.772" fill="#000000" d="M 386.5,180.5 C 389.68,180.176 390.847,181.51 390,184.5C 384.962,192.277 380.295,200.277 376,208.5C 372.667,210.167 371.333,209.167 372,205.5C 376.845,197.139 381.678,188.806 386.5,180.5 Z"/></g>
<g><path style="opacity:0.858" fill="#000000" d="M 607.5,240.5 C 608.833,240.5 610.167,240.5 611.5,240.5C 611.5,253.833 611.5,267.167 611.5,280.5C 610.167,280.5 608.833,280.5 607.5,280.5C 607.5,267.167 607.5,253.833 607.5,240.5 Z"/></g>
<g><path style="opacity:0.813" fill="#000000" d="M 136.5,242.5 C 137.833,242.5 139.167,242.5 140.5,242.5C 140.168,251.525 140.502,260.525 141.5,269.5C 152.769,262.887 161.769,254.054 168.5,243C 169.793,242.51 171.127,242.343 172.5,242.5C 170.332,250.306 165.999,256.806 159.5,262C 167.35,266.001 172.35,272.168 174.5,280.5C 170.776,280.95 168.609,279.283 168,275.5C 164.3,271.465 160.3,267.798 156,264.5C 151.419,268.597 146.252,271.597 140.5,273.5C 140.5,275.833 140.5,278.167 140.5,280.5C 139.167,280.5 137.833,280.5 136.5,280.5C 136.5,267.833 136.5,255.167 136.5,242.5 Z"/></g>
<g><path style="opacity:0.829" fill="#000000" d="M 244.5,245.5 C 245.833,245.5 247.167,245.5 248.5,245.5C 248.5,248.5 248.5,251.5 248.5,254.5C 256.86,254.169 265.193,254.502 273.5,255.5C 273.291,256.086 272.957,256.586 272.5,257C 264.507,257.5 256.507,257.666 248.5,257.5C 248.334,261.514 248.501,265.514 249,269.5C 251.477,277.885 256.644,280.051 264.5,276C 265.743,274.846 266.743,273.512 267.5,272C 268.793,271.51 270.127,271.343 271.5,271.5C 271.574,276.929 268.907,280.096 263.5,281C 258.266,281.977 253.266,281.31 248.5,279C 246.513,277.681 245.346,275.848 245,273.5C 244.501,268.177 244.334,262.844 244.5,257.5C 241.833,257.5 239.167,257.5 236.5,257.5C 236.5,256.5 236.5,255.5 236.5,254.5C 239.167,254.5 241.833,254.5 244.5,254.5C 244.5,251.5 244.5,248.5 244.5,245.5 Z"/></g>
<g><path style="opacity:0.766" fill="#000000" d="M 292.5,251.5 C 297.599,251.175 302.599,251.675 307.5,253C 310.215,253.875 311.548,255.708 311.5,258.5C 307.22,257.274 302.886,255.941 298.5,254.5C 293.948,254.359 290.948,256.359 289.5,260.5C 289.529,262.029 290.196,263.196 291.5,264C 297.143,264.864 302.81,265.531 308.5,266C 314.794,268.519 316.127,272.685 312.5,278.5C 303.572,282.272 294.572,282.438 285.5,279C 284.62,277.644 284.286,276.144 284.5,274.5C 288.834,276.644 293.501,277.644 298.5,277.5C 301.924,277.518 305.257,277.018 308.5,276C 310.962,272.039 309.629,269.706 304.5,269C 300.5,268.667 296.5,268.333 292.5,268C 285.954,267.411 283.454,263.911 285,257.5C 286.707,254.41 289.207,252.41 292.5,251.5 Z"/></g>
<g><path style="opacity:0.797" fill="#000000" d="M 337.5,251.5 C 343.402,250.962 349.068,251.795 354.5,254C 358.548,257.6 360.215,262.1 359.5,267.5C 350.143,267.168 340.81,267.502 331.5,268.5C 333.728,274.46 338.061,277.793 344.5,278.5C 349.41,277.693 354.077,276.36 358.5,274.5C 358.762,275.978 358.429,277.311 357.5,278.5C 348.011,283.07 339.011,282.403 330.5,276.5C 324.87,268.443 325.537,260.943 332.5,254C 334.315,253.243 335.981,252.41 337.5,251.5 Z M 341.5,254.5 C 348.131,254.48 352.797,257.48 355.5,263.5C 347.5,264.833 339.5,264.833 331.5,263.5C 333.634,259.026 336.968,256.026 341.5,254.5 Z"/></g>
<g><path style="opacity:0.836" fill="#000000" d="M 386.5,251.5 C 396.207,249.435 403.041,252.768 407,261.5C 408.51,275.99 402.01,282.49 387.5,281C 384.302,280.152 381.469,278.652 379,276.5C 378.501,281.489 378.334,286.489 378.5,291.5C 377.167,291.5 375.833,291.5 374.5,291.5C 374.5,278.5 374.5,265.5 374.5,252.5C 375.833,252.5 377.167,252.5 378.5,252.5C 378.343,253.873 378.51,255.207 379,256.5C 381.17,254.177 383.67,252.51 386.5,251.5 Z M 389.5,254.5 C 401.236,255.66 405.069,261.66 401,272.5C 398.855,275.738 395.855,277.405 392,277.5C 387.259,276.201 382.759,274.534 378.5,272.5C 378.5,268.167 378.5,263.833 378.5,259.5C 382.566,258.632 386.233,256.966 389.5,254.5 Z"/></g>
<g><path style="opacity:0.797" fill="#000000" d="M 432.5,251.5 C 438.402,250.962 444.068,251.795 449.5,254C 453.548,257.6 455.215,262.1 454.5,267.5C 445.143,267.168 435.81,267.502 426.5,268.5C 428.728,274.46 433.061,277.793 439.5,278.5C 444.41,277.693 449.077,276.36 453.5,274.5C 453.762,275.978 453.429,277.311 452.5,278.5C 443.011,283.07 434.011,282.403 425.5,276.5C 419.87,268.443 420.537,260.943 427.5,254C 429.315,253.243 430.981,252.41 432.5,251.5 Z M 436.5,254.5 C 443.131,254.48 447.797,257.48 450.5,263.5C 442.5,264.833 434.5,264.833 426.5,263.5C 428.634,259.026 431.968,256.026 436.5,254.5 Z"/></g>
<g><path style="opacity:0.797" fill="#000000" d="M 478.5,251.5 C 484.402,250.962 490.068,251.795 495.5,254C 499.548,257.6 501.215,262.1 500.5,267.5C 491.143,267.168 481.81,267.502 472.5,268.5C 474.728,274.46 479.061,277.793 485.5,278.5C 490.41,277.693 495.077,276.36 499.5,274.5C 499.762,275.978 499.429,277.311 498.5,278.5C 489.011,283.07 480.011,282.403 471.5,276.5C 465.87,268.443 466.537,260.943 473.5,254C 475.315,253.243 476.981,252.41 478.5,251.5 Z M 482.5,254.5 C 489.131,254.48 493.797,257.48 496.5,263.5C 488.5,264.833 480.5,264.833 472.5,263.5C 474.634,259.026 477.968,256.026 482.5,254.5 Z"/></g>
<g><path style="opacity:0.79" fill="#000000" d="M 522.5,251.5 C 528.769,250.576 534.436,251.909 539.5,255.5C 540.673,252.721 542.507,252.054 545,253.5C 545.667,263.833 545.667,274.167 545,284.5C 544.496,288.02 542.663,290.52 539.5,292C 532.031,294.228 524.698,293.895 517.5,291C 514.713,289.093 514.88,287.593 518,286.5C 524.203,290.941 530.703,291.441 537.5,288C 538.701,287.097 539.535,285.931 540,284.5C 540.667,281.167 540.667,277.833 540,274.5C 533.926,279.629 527.093,280.796 519.5,278C 512.993,271.831 511.827,264.664 516,256.5C 517.965,254.45 520.132,252.783 522.5,251.5 Z M 526.5,254.5 C 531.457,255.659 536.123,257.325 540.5,259.5C 540.5,263.5 540.5,267.5 540.5,271.5C 539.127,271.343 537.793,271.51 536.5,272C 531.065,277.498 525.565,277.665 520,272.5C 516.316,264.387 518.482,258.387 526.5,254.5 Z"/></g>
<g><path style="opacity:0.797" fill="#000000" d="M 571.5,251.5 C 577.402,250.962 583.068,251.795 588.5,254C 592.548,257.6 594.215,262.1 593.5,267.5C 584.143,267.168 574.81,267.502 565.5,268.5C 567.728,274.46 572.061,277.793 578.5,278.5C 583.41,277.693 588.077,276.36 592.5,274.5C 592.762,275.978 592.429,277.311 591.5,278.5C 582.011,283.07 573.011,282.403 564.5,276.5C 558.87,268.443 559.537,260.943 566.5,254C 568.315,253.243 569.981,252.41 571.5,251.5 Z M 575.5,254.5 C 582.131,254.48 586.797,257.48 589.5,263.5C 581.5,264.833 573.5,264.833 565.5,263.5C 567.634,259.026 570.968,256.026 575.5,254.5 Z"/></g>
<g><path style="opacity:0.785" fill="#000000" d="M 188.5,252.5 C 190.144,252.286 191.644,252.62 193,253.5C 192.78,261.169 194.78,268.169 199,274.5C 210.231,280.387 217.231,277.053 220,264.5C 220.333,260.833 220.667,257.167 221,253.5C 222.356,252.62 223.856,252.286 225.5,252.5C 226.251,261.94 223.918,270.44 218.5,278C 204.43,285.094 194.93,281.26 190,266.5C 189.006,261.882 188.506,257.215 188.5,252.5 Z"/></g>
</svg>
