<?xml version="1.0" standalone="no"?>
<!DOCTYPE svg PUBLIC "-//W3C//DTD SVG 20010904//EN"
 "http://www.w3.org/TR/2001/REC-SVG-20010904/DTD/svg10.dtd">
<svg version="1.0" xmlns="http://www.w3.org/2000/svg"
 width="781.000000pt" height="435.000000pt" viewBox="0 0 781.000000 435.000000"
 preserveAspectRatio="xMidYMid meet">

<g transform="translate(0.000000,435.000000) scale(0.100000,-0.100000)"
fill="#000000" stroke="none">
<path d="M3800 3950 c-8 -4 -40 -18 -70 -30 -30 -12 -69 -33 -87 -46 -17 -13
-36 -24 -40 -24 -17 0 -154 -146 -196 -210 -88 -132 -136 -245 -179 -416 -30
-123 -32 -139 -32 -329 -1 -202 1 -219 48 -405 28 -113 100 -270 170 -369 157
-221 392 -343 600 -311 160 25 346 143 439 280 73 106 96 147 133 230 45 104
65 173 95 325 17 83 19 129 16 275 -5 174 -13 229 -57 388 -18 65 -32 100 -74
192 -27 61 -98 170 -143 220 -93 106 -160 157 -274 205 -78 34 -85 35 -207 34
-70 0 -134 -4 -142 -9z m310 -87 c35 -13 86 -38 112 -55 54 -34 196 -181 218
-225 8 -15 22 -40 32 -54 57 -85 126 -309 149 -484 13 -100 7 -308 -11 -395
-45 -219 -91 -337 -184 -475 -93 -139 -188 -215 -346 -276 -47 -19 -223 -19
-270 0 -130 51 -215 111 -298 214 -110 136 -175 278 -220 482 -22 103 -26 144
-26 290 0 166 2 183 44 375 18 85 92 248 153 340 42 63 143 165 202 205 140
94 295 114 445 58z"/>
<path d="M3815 3799 c-166 -54 -330 -250 -415 -496 -84 -244 -83 -610 1 -833
11 -30 26 -71 33 -90 46 -123 171 -282 279 -356 145 -98 336 -92 481 14 93 68
194 192 238 292 9 19 25 57 38 84 45 101 90 337 90 471 0 141 -39 343 -90 470
-72 180 -163 304 -284 388 -112 76 -247 97 -371 56z m226 -65 c74 -22 140 -65
205 -137 235 -260 307 -747 167 -1127 -166 -447 -494 -578 -760 -302 -192 200
-283 570 -229 929 21 134 37 185 101 318 124 256 318 377 516 319z"/>
<path d="M4172 2723 c-10 -16 -47 -77 -82 -138 -35 -60 -79 -137 -98 -170 -65
-113 -75 -133 -69 -149 9 -23 34 -31 52 -16 8 6 28 37 46 68 18 31 40 71 49
87 10 17 34 59 55 95 20 36 40 70 44 75 4 6 24 40 44 77 34 60 36 68 21 82
-22 23 -40 20 -62 -11z"/>
<path d="M4337 2718 c-59 -97 -81 -134 -127 -213 -29 -49 -65 -113 -81 -142
-16 -29 -34 -61 -41 -73 -15 -23 -2 -53 25 -58 20 -4 46 33 154 223 141 249
139 244 127 263 -17 26 -41 26 -57 0z"/>
<path d="M1357 1804 c-4 -4 -7 -133 -7 -286 l0 -278 29 0 c29 0 30 2 33 53 3
47 5 52 28 55 39 6 197 120 292 211 94 90 154 171 164 220 6 28 4 31 -17 31
-19 -1 -32 -14 -59 -63 -47 -83 -184 -219 -298 -295 -51 -34 -97 -62 -102 -62
-6 0 -11 91 -12 208 -3 200 -4 207 -23 210 -12 2 -24 0 -28 -4z"/>
<path d="M3022 1748 c-7 -7 -12 -36 -12 -65 l0 -52 -57 -3 c-44 -2 -58 -7 -58
-18 0 -12 13 -15 58 -15 l57 0 0 -86 c0 -210 43 -276 188 -287 87 -6 147 11
190 54 25 25 33 40 30 61 -4 38 -38 38 -56 1 -31 -66 -142 -98 -212 -61 -60
31 -75 71 -75 201 l0 113 185 2 c157 2 185 4 185 17 0 13 -28 15 -185 17
l-185 2 -3 65 c-2 55 -6 66 -20 66 -10 0 -23 -5 -30 -12z"/>
<path d="M3724 1652 c-57 -27 -84 -65 -84 -118 0 -83 41 -104 231 -118 96 -7
133 -20 148 -53 18 -39 -7 -69 -76 -89 -76 -22 -194 -14 -234 15 -32 24 -79
28 -79 8 0 -51 111 -82 256 -74 140 8 199 42 199 117 0 77 -53 106 -221 120
-146 12 -173 27 -164 90 5 41 78 80 147 80 40 0 93 -19 119 -41 21 -20 59 -25
68 -10 11 17 -5 38 -47 62 -59 33 -203 39 -263 11z"/>
<path d="M4424 1654 c-52 -18 -109 -75 -126 -123 -20 -60 -14 -143 13 -192 28
-50 89 -96 145 -109 99 -23 252 -2 295 41 41 41 -11 53 -70 17 -30 -19 -50
-23 -121 -23 -74 0 -90 4 -126 27 -44 28 -71 64 -84 109 l-9 29 220 0 219 0 0
48 c0 73 -60 150 -137 178 -50 17 -167 16 -219 -2z m203 -49 c55 -28 80 -57
89 -104 l6 -30 -188 -3 c-104 -2 -190 -3 -191 -3 0 0 5 18 12 39 26 73 101
125 186 126 19 0 58 -11 86 -25z"/>
<path d="M2167 1644 c-11 -12 -8 -87 8 -169 27 -142 92 -225 194 -246 62 -13
149 -6 189 15 95 50 152 179 152 343 0 60 -1 63 -25 63 -27 0 -30 -11 -38
-125 -9 -119 -54 -201 -131 -240 -55 -28 -74 -30 -129 -14 -89 25 -148 130
-164 294 -7 70 -11 80 -28 83 -12 2 -24 0 -28 -4z"/>
<path d="M1670 1475 c0 -8 19 -27 43 -44 53 -37 107 -94 141 -149 21 -33 32
-42 49 -40 33 5 24 43 -26 108 -59 76 -140 140 -177 140 -20 0 -30 -5 -30 -15z"/>
<path d="M6415 1137 c-3 -7 -4 -134 -3 -282 l3 -270 23 -3 22 -3 0 285 c0 281
0 286 -20 286 -11 0 -23 -6 -25 -13z"/>
<path d="M3195 979 c-16 -6 -46 -24 -66 -40 -40 -30 -49 -29 -49 8 0 20 -5 24
-22 21 l-23 -3 -3 -271 c-2 -242 -1 -272 14 -278 9 -3 20 -4 25 0 5 3 9 57 9
120 0 63 4 114 8 114 5 0 17 -9 28 -21 37 -41 88 -59 167 -59 68 0 79 3 123
33 125 84 127 268 4 351 -35 24 -55 30 -114 32 -39 2 -84 -1 -101 -7z m180
-64 c49 -37 79 -103 70 -155 -24 -143 -184 -196 -291 -98 -13 11 -32 18 -45
16 -24 -3 -24 -2 -24 102 l0 105 27 0 c15 1 35 8 45 17 65 57 154 62 218 13z"/>
<path d="M3859 976 c-90 -32 -139 -102 -139 -199 0 -78 32 -133 100 -174 52
-31 59 -33 155 -33 85 0 108 4 145 23 55 27 66 57 22 57 -16 0 -35 -7 -42 -14
-6 -8 -37 -20 -68 -27 -101 -21 -199 17 -237 92 -32 60 -34 59 185 59 227 0
220 -3 200 79 -14 60 -76 123 -136 140 -52 15 -141 13 -185 -3z m206 -61 c36
-26 65 -72 65 -99 0 -13 -27 -16 -175 -18 -172 -3 -175 -3 -175 18 0 35 42 88
90 112 61 32 145 26 195 -13z"/>
<path d="M4540 981 c-85 -27 -132 -77 -150 -155 -23 -105 25 -200 122 -240 44
-19 193 -22 251 -5 42 11 81 44 72 59 -10 16 -42 11 -81 -12 -29 -17 -54 -22
-108 -23 -92 0 -153 33 -185 98 -12 24 -21 48 -21 53 0 5 83 8 206 6 l207 -3
-5 56 c-5 65 -41 117 -102 148 -42 22 -163 32 -206 18z m170 -53 c47 -24 101
-101 84 -118 -5 -5 -87 -10 -182 -12 l-173 -3 6 25 c15 61 52 96 125 123 35
13 98 6 140 -15z"/>
<path d="M5149 967 c-24 -13 -57 -42 -73 -65 -26 -36 -30 -51 -30 -110 -1
-131 65 -195 198 -196 74 0 118 15 164 57 50 46 3 67 -50 22 -117 -99 -279 -9
-254 143 11 67 80 132 143 132 36 0 101 -29 122 -54 8 -9 24 -16 37 -16 57 0
2 69 -79 99 -49 19 -130 13 -178 -12z"/>
<path d="M5864 974 c-79 -28 -134 -105 -134 -189 0 -86 36 -149 110 -189 42
-23 59 -26 142 -26 122 0 198 25 198 67 0 19 -33 16 -77 -6 -81 -42 -183 -35
-251 15 -34 27 -62 71 -62 101 0 17 14 18 202 18 l203 0 3 31 c7 72 -64 160
-149 184 -48 14 -137 11 -185 -6z m179 -38 c43 -18 85 -65 93 -103 l6 -32
-176 -3 c-197 -3 -194 -5 -153 67 40 72 149 106 230 71z"/>
<path d="M5447 964 c-4 -4 -7 -102 -7 -217 0 -175 -3 -215 -17 -244 -35 -74
-171 -97 -272 -47 -40 20 -55 24 -64 15 -35 -35 61 -80 173 -80 94 -1 141 12
185 50 48 42 56 94 53 329 -3 188 -4 195 -23 198 -12 2 -24 0 -28 -4z"/>
</g>
</svg>
